<svg xmlns="http://www.w3.org/2000/svg" version="1.1" xmlns:xlink="http://www.w3.org/1999/xlink" xmlns:svgjs="http://svgjs.dev/svgjs" width="1440" height="560" preserveAspectRatio="none" viewBox="0 0 1440 560"><g mask="url(&quot;#SvgjsMask1434&quot;)" fill="none"><rect width="1440" height="560" x="0" y="0" fill="url(&quot;#SvgjsLinearGradient1435&quot;)"></rect><path d="M1512 560L0 560 L0 438.72Q60.39 379.12, 120 439.51Q161.14 408.65, 192 449.79Q235.63 421.43, 264 465.06Q306.4 387.46, 384 429.86Q454.7 380.56, 504 451.27Q546.23 421.5, 576 463.72Q615.76 383.49, 696 423.25Q771.15 378.4, 816 453.56Q844.41 409.97, 888 438.38Q939.01 369.39, 1008 420.41Q1083.72 376.13, 1128 451.86Q1155.32 407.18, 1200 434.49Q1253.92 368.41, 1320 422.33Q1394.49 376.82, 1440 451.32Q1467.88 407.2, 1512 435.08z" fill="#182f5d"></path><path d="M1488 560L0 560 L0 474.86Q44.66 447.52, 72 492.18Q90.95 439.13, 144 458.08Q214.69 408.77, 264 479.46Q306.83 450.29, 336 493.13Q382.56 419.69, 456 466.26Q522.1 412.36, 576 478.46Q622.06 452.52, 648 498.58Q668.22 446.79, 720 467.01Q766.38 441.39, 792 487.78Q858.2 433.98, 912 500.17Q958.33 426.5, 1032 472.84Q1100.18 421.02, 1152 489.2Q1173.37 438.57, 1224 459.94Q1267.38 431.32, 1296 474.71Q1366.81 425.51, 1416 496.32Q1431.72 440.04, 1488 455.77z" fill="#25467d"></path><path d="M1536 560L0 560 L0 526.79Q60.62 467.41, 120 528.03Q167.86 455.89, 240 503.75Q270.31 462.06, 312 492.36Q392.38 452.75, 432 533.13Q453.62 482.75, 504 504.37Q558.88 439.25, 624 494.13Q697.9 448.03, 744 521.93Q786.25 492.18, 816 534.43Q835.93 482.36, 888 502.28Q931.18 473.46, 960 516.64Q1004.93 489.57, 1032 534.5Q1050.93 481.43, 1104 500.37Q1174.39 450.76, 1224 521.16Q1268.48 445.64, 1344 490.13Q1388.58 462.71, 1416 507.29Q1488.62 459.91, 1536 532.53z" fill="#356cb1"></path><path d="M1512 560L0 560 L0 548.32Q29.93 506.25, 72 536.18Q125.11 517.29, 144 570.4Q195.78 502.18, 264 553.97Q288.44 506.41, 336 530.85Q402.39 477.25, 456 543.64Q498.02 513.66, 528 555.69Q576.77 484.47, 648 533.24Q700.39 513.63, 720 566.02Q748.38 522.39, 792 550.77Q817.95 504.72, 864 530.68Q917.34 512.02, 936 565.36Q962.28 519.64, 1008 545.92Q1035.97 501.89, 1080 529.87Q1134.95 512.82, 1152 567.77Q1198.96 494.73, 1272 541.69Q1339.15 488.84, 1392 555.99Q1458.55 502.54, 1512 569.08z" fill="white"></path></g><defs><mask id="SvgjsMask1434"><rect width="1440" height="560" fill="#ffffff"></rect></mask><linearGradient x1="15.28%" y1="-39.29%" x2="84.72%" y2="139.29%" gradientUnits="userSpaceOnUse" id="SvgjsLinearGradient1435"><stop stop-color="#0e2a47" offset="0"></stop><stop stop-color="rgba(0, 86, 197, 1)" offset="1"></stop></linearGradient></defs></svg>